<svg width="40" height="40" viewBox="0 0 40 40" fill="none" xmlns="http://www.w3.org/2000/svg">
<path d="M17.5 35H29.6667C31.5335 35 32.467 35 33.18 34.6367C33.8072 34.3172 34.3172 33.8072 34.6367 33.18C35 32.467 35 31.5335 35 29.6667V10.3333C35 8.4665 35 7.53307 34.6367 6.82003C34.3172 6.19282 33.8072 5.68288 33.18 5.36332C32.467 5 31.5335 5 29.6667 5H23.3333C21.7802 5 21.0037 5 20.391 5.25373C19.5743 5.59205 18.9253 6.24097 18.587 7.05772C18.3333 7.6703 18.3333 8.44687 18.3333 10M5 30H20M28.3333 20H35M28.3333 13.3333H35M13.3333 16.6667V23.3333M10 20H16.6667M10.3333 10H16.3333C18.2002 10 19.1337 10 19.8467 10.3633C20.4738 10.6829 20.9838 11.1928 21.3033 11.82C21.6667 12.5331 21.6667 13.4665 21.6667 15.3333V29.6667C21.6667 31.5335 21.6667 32.467 21.3033 33.18C20.9838 33.8072 20.4738 34.3172 19.8467 34.6367C19.1337 35 18.2002 35 16.3333 35H10.3333C8.4665 35 7.53307 35 6.82003 34.6367C6.19282 34.3172 5.68288 33.8072 5.36332 33.18C5 32.467 5 31.5335 5 29.6667V15.3333C5 13.4665 5 12.5331 5.36332 11.82C5.68288 11.1928 6.19282 10.6829 6.82003 10.3633C7.53307 10 8.4665 10 10.3333 10Z" stroke="#027FA3" stroke-width="2" stroke-linecap="round" stroke-linejoin="round"/>
</svg>
