<svg width="40" height="40" viewBox="0 0 40 40" fill="none" xmlns="http://www.w3.org/2000/svg">
<path d="M19.9985 28.3342H20.0152M19.9985 16.6675V23.3342M10.6852 35.0008H29.3117C32.281 35.0008 33.7659 35.0008 34.6367 34.3763C35.3965 33.8315 35.8927 32.9925 36.0039 32.064C36.1314 31.0002 35.4159 29.6992 33.9849 27.0973L24.6715 10.1642C23.148 7.39389 22.3862 6.00878 21.3795 5.55053C20.5022 5.15113 19.4949 5.15113 18.6174 5.55053C17.6107 6.00878 16.849 7.39389 15.3253 10.1641L6.0121 27.0973C4.58106 29.6992 3.86555 31.0002 3.99303 32.064C4.10428 32.9925 4.60036 33.8315 5.36025 34.3763C6.2311 35.0008 7.71581 35.0008 10.6852 35.0008Z" stroke="#027FA3" stroke-width="2" stroke-linecap="round" stroke-linejoin="round"/>
</svg>
