<svg width="20" height="20" viewBox="0 0 20 20" fill="none" xmlns="http://www.w3.org/2000/svg">
<path d="M0 10C0 4.47715 4.47715 0 10 0C15.5228 0 20 4.47715 20 10C20 15.5228 15.5228 20 10 20C4.47715 20 0 15.5228 0 10Z" fill="white"/>
<g clip-path="url(#clip0_2836_39540)">
<path d="M10.0007 13.0946C12.3018 13.0946 14.1673 11.2291 14.1673 8.9279C14.1673 6.62671 12.3018 4.76123 10.0007 4.76123C7.69946 4.76123 5.83398 6.62671 5.83398 8.9279C5.83398 11.2291 7.69946 13.0946 10.0007 13.0946Z" fill="#DADBDC"/>
<path d="M10.0008 15.1782C5.82578 15.1782 2.42578 17.9782 2.42578 21.4282C2.42578 21.6616 2.60911 21.8449 2.84245 21.8449H17.1591C17.3924 21.8449 17.5758 21.6616 17.5758 21.4282C17.5758 17.9782 14.1758 15.1782 10.0008 15.1782Z" fill="#DADBDC"/>
</g>
<path d="M10 0.349609C15.3295 0.349609 19.6504 4.67045 19.6504 10C19.6504 15.3295 15.3295 19.6504 10 19.6504C4.67045 19.6504 0.349609 15.3295 0.349609 10C0.349609 4.67045 4.67045 0.349609 10 0.349609Z" stroke="#E0E2E2" stroke-width="0.7"/>
<defs>
<clipPath id="clip0_2836_39540">
<path d="M0 10C0 4.47715 4.47715 0 10 0C15.5228 0 20 4.47715 20 10C20 15.5228 15.5228 20 10 20C4.47715 20 0 15.5228 0 10Z" fill="white"/>
</clipPath>
</defs>
</svg>
