<svg width="20" height="20" viewBox="0 0 20 20" fill="none" xmlns="http://www.w3.org/2000/svg">
<path d="M7.13477 14.1643C7.0306 14.1643 6.97852 14.1122 6.97852 14.008V10.4955H12.7285V14.008C12.7285 14.1122 12.6764 14.1643 12.5723 14.1643H11.341C11.2702 14.1643 11.2202 14.1288 11.191 14.058L10.0285 11.058H9.06602V14.008C9.06602 14.1122 9.01393 14.1643 8.90977 14.1643H7.13477ZM6.82227 10.083C6.7181 10.083 6.66602 10.0309 6.66602 9.92676V9.71426C6.66602 9.61009 6.7181 9.55801 6.82227 9.55801H12.8848C12.9889 9.55801 13.041 9.61009 13.041 9.71426V9.92676C13.041 10.0309 12.9889 10.083 12.8848 10.083H6.82227ZM6.97852 9.14551V5.98926C6.97852 5.88509 7.0306 5.83301 7.13477 5.83301H8.37227C8.4431 5.83301 8.48893 5.86426 8.50977 5.92676L9.67852 8.68301H10.6348V5.98926C10.6348 5.88509 10.6868 5.83301 10.791 5.83301H12.5723C12.6764 5.83301 12.7285 5.88509 12.7285 5.98926V9.14551H6.97852Z" fill="#667185"/>
<path d="M18.3327 10.0003C18.3327 14.6003 14.5993 18.3337 9.99935 18.3337C5.39935 18.3337 1.66602 14.6003 1.66602 10.0003C1.66602 5.40033 5.39935 1.66699 9.99935 1.66699" stroke="#667185" stroke-width="1.5" stroke-linecap="round" stroke-linejoin="round"/>
<path d="M14.166 2.5V5.83333H17.4993" stroke="#667185" stroke-width="1.5" stroke-linecap="round" stroke-linejoin="round"/>
<path d="M18.3327 1.66699L14.166 5.83366" stroke="#667185" stroke-width="1.5" stroke-linecap="round" stroke-linejoin="round"/>
</svg>
