<svg width="20" height="20" viewBox="0 0 20 20" fill="none" xmlns="http://www.w3.org/2000/svg">
<path d="M8.33333 17.5H5.16667C4.23325 17.5 3.76653 17.5 3.41002 17.3183C3.09641 17.1586 2.84144 16.9036 2.68166 16.59C2.5 16.2335 2.5 15.7667 2.5 14.8333V6.83333C2.5 5.89992 2.5 5.4332 2.68166 5.07668C2.84144 4.76307 3.09641 4.50811 3.41002 4.34832C3.76653 4.16667 4.23325 4.16667 5.16667 4.16667H14.8333C15.7667 4.16667 16.2335 4.16667 16.59 4.34832C16.9036 4.50811 17.1586 4.76307 17.3183 5.07668C17.5 5.4332 17.5 5.89992 17.5 6.83333V8.33333M5.83333 2.5V4.16667M14.1667 2.5V4.16667M2.5 7.5H17.5M11.25 10.8334L5.83333 10.8333M8.33333 14.1667L5.83333 14.1667M11.6667 17.5L13.3542 17.1625C13.5012 17.1331 13.5748 17.1183 13.6434 17.0914C13.7043 17.0676 13.7623 17.0366 13.8158 16.9992C13.8763 16.957 13.9293 16.904 14.0355 16.7978L17.5 13.3333C17.9602 12.8731 17.9602 12.1269 17.5 11.6667C17.0397 11.2064 16.2936 11.2064 15.8333 11.6667L12.3688 15.1312C12.2627 15.2373 12.2097 15.2903 12.1675 15.3508C12.1301 15.4044 12.0991 15.4623 12.0752 15.5232C12.0483 15.5918 12.0336 15.6654 12.0042 15.8125L11.6667 17.5Z" stroke="#667185" stroke-width="1.3" stroke-linecap="round" stroke-linejoin="round"/>
</svg>
