<svg width="20" height="20" viewBox="0 0 20 20" fill="none" xmlns="http://www.w3.org/2000/svg">
<path d="M18.3333 9.08366V3.41699C18.3333 2.16699 17.8 1.66699 16.475 1.66699H13.1083C11.7833 1.66699 11.25 2.16699 11.25 3.41699V9.08366C11.25 10.3337 11.7833 10.8337 13.1083 10.8337H16.475C17.8 10.8337 18.3333 10.3337 18.3333 9.08366Z" stroke="#017EA6" stroke-width="1.5" stroke-linecap="round" stroke-linejoin="round"/>
<path d="M18.3333 16.583V15.083C18.3333 13.833 17.8 13.333 16.475 13.333H13.1083C11.7833 13.333 11.25 13.833 11.25 15.083V16.583C11.25 17.833 11.7833 18.333 13.1083 18.333H16.475C17.8 18.333 18.3333 17.833 18.3333 16.583Z" stroke="#017EA6" stroke-width="1.5" stroke-linecap="round" stroke-linejoin="round"/>
<path d="M8.74935 10.917V16.5837C8.74935 17.8337 8.21602 18.3337 6.89102 18.3337H3.52435C2.19935 18.3337 1.66602 17.8337 1.66602 16.5837V10.917C1.66602 9.66699 2.19935 9.16699 3.52435 9.16699H6.89102C8.21602 9.16699 8.74935 9.66699 8.74935 10.917Z" stroke="#017EA6" stroke-width="1.5" stroke-linecap="round" stroke-linejoin="round"/>
<path d="M8.74935 3.41699V4.91699C8.74935 6.16699 8.21602 6.66699 6.89102 6.66699H3.52435C2.19935 6.66699 1.66602 6.16699 1.66602 4.91699V3.41699C1.66602 2.16699 2.19935 1.66699 3.52435 1.66699H6.89102C8.21602 1.66699 8.74935 2.16699 8.74935 3.41699Z" stroke="#017EA6" stroke-width="1.5" stroke-linecap="round" stroke-linejoin="round"/>
</svg>
