<svg width="16" height="16" viewBox="0 0 16 16" fill="none" xmlns="http://www.w3.org/2000/svg">
<path d="M2.02734 4.96276L7.0397 8.47141C7.44558 8.75553 7.64853 8.89759 7.86927 8.95261C8.06426 9.00122 8.2682 9.00122 8.46319 8.95261C8.68394 8.89759 8.88688 8.75553 9.29277 8.47141L14.3051 4.96276M4.97401 12.9433H11.3585C12.3899 12.9433 12.9056 12.9433 13.2996 12.7426C13.6461 12.566 13.9278 12.2843 14.1044 11.9377C14.3051 11.5438 14.3051 11.0281 14.3051 9.99665V6.06776C14.3051 5.03633 14.3051 4.52062 14.1044 4.12666C13.9278 3.78013 13.6461 3.49839 13.2996 3.32182C12.9056 3.12109 12.3899 3.12109 11.3585 3.12109H4.97401C3.94258 3.12109 3.42687 3.12109 3.03291 3.32182C2.68638 3.49839 2.40464 3.78013 2.22807 4.12666C2.02734 4.52062 2.02734 5.03633 2.02734 6.06776V9.99665C2.02734 11.0281 2.02734 11.5438 2.22807 11.9377C2.40464 12.2843 2.68638 12.566 3.03291 12.7426C3.42687 12.9433 3.94258 12.9433 4.97401 12.9433Z" stroke="#667085" stroke-width="1.22778" stroke-linecap="round" stroke-linejoin="round"/>
</svg>
